<svg id="visual" viewBox="0 0 960 300" width="960" height="300" xmlns="http://www.w3.org/2000/svg" xmlns:xlink="http://www.w3.org/1999/xlink" version="1.1"><rect x="0" y="0" width="960" height="300" fill="#303030"></rect><path d="M0 192L22.8 187.3C45.7 182.7 91.3 173.3 137 165.7C182.7 158 228.3 152 274 156.5C319.7 161 365.3 176 411.2 180.2C457 184.3 503 177.7 548.8 168.3C594.7 159 640.3 147 686 149C731.7 151 777.3 167 823 172.7C868.7 178.3 914.3 173.7 937.2 171.3L960 169L960 301L937.2 301C914.3 301 868.7 301 823 301C777.3 301 731.7 301 686 301C640.3 301 594.7 301 548.8 301C503 301 457 301 411.2 301C365.3 301 319.7 301 274 301C228.3 301 182.7 301 137 301C91.3 301 45.7 301 22.8 301L0 301Z" fill="#f07838"></path><path d="M0 194L22.8 190.2C45.7 186.3 91.3 178.7 137 178.5C182.7 178.3 228.3 185.7 274 193.7C319.7 201.7 365.3 210.3 411.2 209C457 207.7 503 196.3 548.8 192.3C594.7 188.3 640.3 191.7 686 197C731.7 202.3 777.3 209.7 823 212.7C868.7 215.7 914.3 214.3 937.2 213.7L960 213L960 301L937.2 301C914.3 301 868.7 301 823 301C777.3 301 731.7 301 686 301C640.3 301 594.7 301 548.8 301C503 301 457 301 411.2 301C365.3 301 319.7 301 274 301C228.3 301 182.7 301 137 301C91.3 301 45.7 301 22.8 301L0 301Z" fill="#e46c3b"></path><path d="M0 242L22.8 238.2C45.7 234.3 91.3 226.7 137 218.5C182.7 210.3 228.3 201.7 274 197.8C319.7 194 365.3 195 411.2 195.5C457 196 503 196 548.8 197.5C594.7 199 640.3 202 686 202.5C731.7 203 777.3 201 823 200.7C868.7 200.3 914.3 201.7 937.2 202.3L960 203L960 301L937.2 301C914.3 301 868.7 301 823 301C777.3 301 731.7 301 686 301C640.3 301 594.7 301 548.8 301C503 301 457 301 411.2 301C365.3 301 319.7 301 274 301C228.3 301 182.7 301 137 301C91.3 301 45.7 301 22.8 301L0 301Z" fill="#d7603e"></path><path d="M0 241L22.8 238.7C45.7 236.3 91.3 231.7 137 229.7C182.7 227.7 228.3 228.3 274 230.7C319.7 233 365.3 237 411.2 241C457 245 503 249 548.8 245.7C594.7 242.3 640.3 231.7 686 226C731.7 220.3 777.3 219.7 823 226.5C868.7 233.3 914.3 247.7 937.2 254.8L960 262L960 301L937.2 301C914.3 301 868.7 301 823 301C777.3 301 731.7 301 686 301C640.3 301 594.7 301 548.8 301C503 301 457 301 411.2 301C365.3 301 319.7 301 274 301C228.3 301 182.7 301 137 301C91.3 301 45.7 301 22.8 301L0 301Z" fill="#c9563f"></path><path d="M0 289L22.8 282.3C45.7 275.7 91.3 262.3 137 261.8C182.7 261.3 228.3 273.7 274 275.5C319.7 277.3 365.3 268.7 411.2 263.2C457 257.7 503 255.3 548.8 259.2C594.7 263 640.3 273 686 277.2C731.7 281.3 777.3 279.7 823 281.2C868.7 282.7 914.3 287.3 937.2 289.7L960 292L960 301L937.2 301C914.3 301 868.7 301 823 301C777.3 301 731.7 301 686 301C640.3 301 594.7 301 548.8 301C503 301 457 301 411.2 301C365.3 301 319.7 301 274 301C228.3 301 182.7 301 137 301C91.3 301 45.7 301 22.8 301L0 301Z" fill="#ba4c40"></path></svg>