<svg id="visual" viewBox="0 0 960 300" width="960" height="300" xmlns="http://www.w3.org/2000/svg" xmlns:xlink="http://www.w3.org/1999/xlink" version="1.1"><rect x="0" y="0" width="960" height="300" fill="#f07838"></rect><path d="M0 208L22.8 202.3C45.7 196.7 91.3 185.3 137 165.8C182.7 146.3 228.3 118.7 274 116C319.7 113.3 365.3 135.7 411.2 154.8C457 174 503 190 548.8 186.5C594.7 183 640.3 160 686 148.2C731.7 136.3 777.3 135.7 823 133.8C868.7 132 914.3 129 937.2 127.5L960 126L960 0L937.2 0C914.3 0 868.7 0 823 0C777.3 0 731.7 0 686 0C640.3 0 594.7 0 548.8 0C503 0 457 0 411.2 0C365.3 0 319.7 0 274 0C228.3 0 182.7 0 137 0C91.3 0 45.7 0 22.8 0L0 0Z" fill="#a2b8d2"></path><path d="M0 173L22.8 172.8C45.7 172.7 91.3 172.3 137 155.2C182.7 138 228.3 104 274 99C319.7 94 365.3 118 411.2 128.7C457 139.3 503 136.7 548.8 130.5C594.7 124.3 640.3 114.7 686 110.7C731.7 106.7 777.3 108.3 823 109.2C868.7 110 914.3 110 937.2 110L960 110L960 0L937.2 0C914.3 0 868.7 0 823 0C777.3 0 731.7 0 686 0C640.3 0 594.7 0 548.8 0C503 0 457 0 411.2 0C365.3 0 319.7 0 274 0C228.3 0 182.7 0 137 0C91.3 0 45.7 0 22.8 0L0 0Z" fill="#90a4c0"></path><path d="M0 78L22.8 81.5C45.7 85 91.3 92 137 88.7C182.7 85.3 228.3 71.7 274 70.2C319.7 68.7 365.3 79.3 411.2 79.3C457 79.3 503 68.7 548.8 69.3C594.7 70 640.3 82 686 93C731.7 104 777.3 114 823 107.7C868.7 101.3 914.3 78.7 937.2 67.3L960 56L960 0L937.2 0C914.3 0 868.7 0 823 0C777.3 0 731.7 0 686 0C640.3 0 594.7 0 548.8 0C503 0 457 0 411.2 0C365.3 0 319.7 0 274 0C228.3 0 182.7 0 137 0C91.3 0 45.7 0 22.8 0L0 0Z" fill="#7e91ae"></path><path d="M0 66L22.8 65.8C45.7 65.7 91.3 65.3 137 61C182.7 56.7 228.3 48.3 274 55.7C319.7 63 365.3 86 411.2 88.5C457 91 503 73 548.8 67.2C594.7 61.3 640.3 67.7 686 64.8C731.7 62 777.3 50 823 54.5C868.7 59 914.3 80 937.2 90.5L960 101L960 0L937.2 0C914.3 0 868.7 0 823 0C777.3 0 731.7 0 686 0C640.3 0 594.7 0 548.8 0C503 0 457 0 411.2 0C365.3 0 319.7 0 274 0C228.3 0 182.7 0 137 0C91.3 0 45.7 0 22.8 0L0 0Z" fill="#6d7e9c"></path><path d="M0 49L22.8 53.2C45.7 57.3 91.3 65.7 137 65.3C182.7 65 228.3 56 274 53C319.7 50 365.3 53 411.2 53.2C457 53.3 503 50.7 548.8 44.5C594.7 38.3 640.3 28.7 686 29.5C731.7 30.3 777.3 41.7 823 41.3C868.7 41 914.3 29 937.2 23L960 17L960 0L937.2 0C914.3 0 868.7 0 823 0C777.3 0 731.7 0 686 0C640.3 0 594.7 0 548.8 0C503 0 457 0 411.2 0C365.3 0 319.7 0 274 0C228.3 0 182.7 0 137 0C91.3 0 45.7 0 22.8 0L0 0Z" fill="#5c6b8a"></path></svg>